<?xml version="1.0" standalone="no"?>
<!DOCTYPE svg PUBLIC "-//W3C//DTD SVG 20010904//EN"
 "http://www.w3.org/TR/2001/REC-SVG-20010904/DTD/svg10.dtd">
<svg version="1.0" xmlns="http://www.w3.org/2000/svg"
 width="300.000000pt" height="300.000000pt" viewBox="0 0 300.000000 300.000000"
 preserveAspectRatio="xMidYMid meet">
<metadata>
Created by potrace 1.10, written by Peter Selinger 2001-2011
</metadata>
<g transform="translate(0.000000,300.000000) scale(0.100000,-0.100000)"
fill="#000000" stroke="none">
<path d="M1725 2963 c6 -29 55 -479 55 -497 0 -7 32 -10 93 -8 157 6 352 -38
490 -111 31 -16 59 -28 61 -26 6 6 237 500 239 511 2 12 -139 68 -255 102
-116 33 -258 56 -347 56 -120 -1 -82 -13 179 -61 128 -23 356 -94 363 -114 4
-10 -182 -417 -197 -433 -3 -2 -45 12 -93 32 -129 53 -232 77 -365 83 -67 3
-122 11 -126 17 -5 6 -19 103 -31 214 -23 217 -22 232 23 232 11 1 35 7 51 15
28 13 25 13 -57 14 l-87 1 4 -27z"/>
<path d="M1427 2919 c-65 -21 -162 -59 -215 -84 -94 -45 -283 -164 -350 -222
l-33 -28 77 -65 c43 -36 136 -115 207 -177 l128 -111 62 43 c73 50 181 105
255 129 51 17 52 19 47 49 -3 18 -17 137 -30 266 -14 129 -26 236 -28 237 -1
1 -55 -16 -120 -37z m87 -36 c6 -19 46 -383 46 -415 0 -10 -8 -21 -17 -25 -52
-18 -189 -86 -238 -118 -30 -20 -61 -35 -68 -32 -6 3 -85 69 -175 147 -190
165 -186 142 -38 242 108 72 260 147 381 187 107 36 102 36 109 14z"/>
<path d="M644 2397 c-111 -134 -193 -266 -260 -420 -24 -55 -43 -101 -42 -102
3 -1 511 -97 549 -103 22 -3 27 1 37 35 15 50 90 181 143 249 23 30 40 56 38
58 -96 85 -404 346 -408 345 -3 0 -29 -28 -57 -62z m235 -137 c88 -74 162
-141 165 -148 3 -8 -15 -46 -42 -86 -26 -39 -63 -102 -82 -139 -20 -39 -40
-67 -49 -67 -21 0 -444 81 -453 86 -17 11 -5 49 46 149 79 153 222 351 247
343 5 -2 81 -64 168 -138z"/>
<path d="M1718 2266 c-227 -52 -446 -206 -556 -389 -42 -70 -99 -201 -107
-247 l-6 -35 163 -3 c402 -8 828 43 1113 135 99 32 276 111 299 133 17 17
-107 168 -196 236 -80 62 -208 129 -298 154 -94 28 -324 36 -412 16z m382 -51
c148 -40 292 -125 393 -235 79 -85 83 -94 49 -117 -99 -68 -370 -149 -627
-187 -211 -31 -602 -53 -730 -41 -88 8 -89 11 -51 104 51 126 169 274 277 348
98 67 234 123 359 147 54 10 267 -2 330 -19z"/>
<path d="M281 1656 c-40 -198 -45 -417 -16 -618 11 -71 22 -128 26 -128 11 0
501 119 504 122 1 2 14 46 28 98 22 79 27 122 31 260 3 91 8 174 11 185 6 20
-8 23 -284 76 l-290 55 -10 -50z m190 -26 c57 -11 154 -30 214 -42 61 -12 115
-25 120 -30 6 -6 9 -73 7 -176 -4 -171 -24 -285 -57 -312 -23 -19 -418 -110
-431 -99 -20 17 -36 164 -35 336 0 161 2 184 22 291 12 62 9 61 160 32z"/>
<path d="M2695 1700 c-11 -18 -157 -87 -265 -125 -309 -107 -659 -156 -1127
-156 l-273 -1 0 -109 c0 -109 -1 -112 -86 -397 -48 -158 -89 -293 -91 -299
-11 -29 207 -8 306 30 193 71 346 233 407 429 l18 58 498 2 498 3 0 -87 0 -88
91 0 91 0 -5 293 c-4 248 -8 304 -25 370 -21 83 -26 94 -37 77z m4 -120 c6
-29 11 -162 11 -310 l0 -260 -27 -6 c-43 -11 -57 6 -63 75 -4 47 -10 66 -24
77 -17 12 -104 14 -516 14 l-497 0 -20 -22 c-11 -13 -26 -41 -33 -63 -55 -176
-198 -328 -377 -400 -67 -27 -221 -51 -235 -37 -6 6 19 103 67 263 68 221 78
267 84 357 l6 103 260 4 c274 3 416 13 632 46 233 35 499 111 632 179 79 41
87 39 100 -20z"/>
<path d="M1820 853 c0 -154 27 -270 91 -402 46 -95 62 -116 153 -207 90 -89
113 -106 206 -152 111 -54 191 -77 303 -85 l67 -5 0 248 0 249 -215 151 -215
151 0 80 0 79 -195 0 -195 0 0 -107z m350 -4 c3 -37 12 -65 25 -78 10 -12 89
-70 174 -129 85 -59 172 -123 193 -143 l38 -37 0 -210 c0 -116 -4 -213 -8
-216 -15 -9 -208 45 -279 79 -96 45 -156 86 -225 156 -108 108 -187 259 -214
409 -14 80 -18 212 -7 224 4 3 72 5 152 4 l146 -3 5 -56z"/>
</g>
</svg>
